Motion_pl12
version=1
nRows=10
nColumns=43
inDegrees=yes
endheader
time	pelvis_tilt	pelvis_list	pelvis_rotation	pelvis_tx	pelvis_ty	pelvis_tz	hip_flexion_r	hip_adduction_r	hip_rotation_r	knee_angle_r	ankle_angle_r	subtalar_angle_r	mtp_angle_r	hip_flexion_l	hip_adduction_l	hip_rotation_l	knee_angle_l	ankle_angle_l	subtalar_angle_l	mtp_angle_l	lumbar_extension	lumbar_bending	lumbar_rotation	neck_flexion	neck_lateral_bending	neck_rotation	arm_flex_r	arm_add_r	arm_rot_r	elbow_flex_r	pro_sup_r	wrist_flex_r	wrist_dev_r	hand_finger_flex_r	arm_flex_l	arm_add_l	arm_rot_l	elbow_flex_l	pro_sup_l	wrist_flex_l	wrist_dev_l	hand_finger_flex_l
      0.49250000	     -0.41506368	      4.96840533	     81.57367135	      0.00455920	      1.26046879	      0.77489813	     25.09584781	     -0.98155227	     -9.76896741	    -26.15586410	    -19.83580515	      6.71034917	      1.30093188	     24.99510732	     -9.15522914	    -18.73948725	    -19.67751389	    -26.73987083	      8.83626683	     10.94457607	    -34.55580140	     -2.13877349	      6.65788268	    -13.01725998	      0.41318849	     -2.22855680	    -66.86867828	    -30.44041724	    -35.09710394	     84.24431526	    106.13964379	     -0.40010509	    -14.11622213	      1.87151009	    -53.35925602	    -19.98691525	    -15.60378115	     68.85464604	    124.91534064	    -29.62899189	     -7.82254384	    -22.14339704
      0.49500000	     -0.46925413	      5.00844270	     81.67650287	      0.00399958	      1.25170800	      0.76836174	     24.74805459	     -1.09972090	    -10.03992415	    -25.34052471	    -19.78379142	      6.65171708	      1.41307155	     24.66552807	     -9.02044240	    -19.07270406	    -19.13844605	    -26.66021571	      8.97345325	     10.93563341	    -34.21404957	     -2.07792355	      6.66024922	    -13.64567636	      0.40745159	     -2.28936809	    -67.70674724	    -29.30970722	    -35.24544224	     84.15095795	    105.83424195	     -0.44056454	    -14.15493041	      1.46106391	    -54.56118673	    -19.44824888	    -16.03336103	     68.78123986	    124.86116659	    -29.93247786	     -7.87972817	    -22.31412757
      0.49750000	     -0.37715944	      5.78510749	     81.72661253	      0.00337433	      1.24466717	      0.76119198	     23.30085698	     -1.20223196	    -10.64988857	    -24.11699697	    -19.72530089	      6.84286967	      2.65237722	     23.24359347	     -8.94358003	    -19.94149295	    -18.26676548	    -26.37228516	      9.85709858	     10.76234693	    -34.63778162	     -1.98446371	      6.71273856	    -14.33172865	      0.47468774	     -2.41340324	    -68.56211411	    -28.53648349	    -35.20454872	     83.97790023	    104.51239863	      0.86486560	    -13.93349716	     -2.32781784	    -55.66832702	    -19.01092364	    -16.32519175	     68.62177824	    124.90728934	    -29.81470759	     -8.30730393	    -22.96603233
      0.50000000	     -0.46322335	      5.66564426	     81.83190353	      0.00262369	      1.23543293	      0.75465555	     23.14649163	     -1.34732989	    -11.03683396	    -23.34894999	    -19.53892721	      6.67969708	      2.70752090	     23.09862880	     -8.77812586	    -20.18126914	    -17.72130241	    -26.41158865	     10.06511928	     10.72978532	    -34.09335460	     -1.91491449	      6.74720204	    -15.12781373	      0.53239617	     -2.63845553	    -69.30563763	    -27.39872336	    -35.38365831	     83.80490154	    104.38234915	      0.78447138	    -14.02883896	     -2.57178889	    -56.76861693	    -18.49747230	    -16.70634783	     68.49458515	    124.91167138	    -30.10313947	     -8.42826705	    -23.10527618
      0.50250000	     -0.49656993	      5.58462416	     82.01392054	      0.00192299	      1.22642637	      0.74789585	     22.84225098	     -1.46961885	    -11.63621465	    -22.48254140	    -19.17217636	      6.59705274	      2.82662131	     22.85787672	     -8.65966553	    -20.51075847	    -17.11549627	    -26.38941606	     10.68942935	     10.66604559	    -33.54402272	     -1.77019772	      6.81916915	    -16.08998456	      0.63022199	     -3.05069791	    -70.03076545	    -26.39042278	    -35.32280753	     83.47888180	    104.07661003	      0.75257492	    -14.21474033	     -3.18525318	    -57.76730049	    -18.19258534	    -16.95794893	     68.22294053	    125.09966285	    -30.23169918	     -8.82858022	    -23.25446908
      0.50500000	     -0.51644475	      5.55518425	     82.12528835	      0.00134756	      1.21733202	      0.74148857	     22.56871919	     -1.53233588	    -11.95143490	    -21.71375316	    -18.84229828	      6.45560425	      2.88034884	     22.66212009	     -8.57269504	    -20.73830347	    -16.70348065	    -26.34110420	     10.88847937	     10.62824438	    -33.14212308	     -1.66358723	      6.85573840	    -16.75275255	      0.67376447	     -3.12078620	    -70.59535354	    -25.24686937	    -35.49637672	     83.26546911	    103.84186111	      0.60411667	    -14.31450271	     -3.53619070	    -58.77771096	    -17.67611520	    -17.38370465	     68.11627587	    125.07448182	    -30.46964743	     -8.93331794	    -23.39606203
      0.50750000	     -0.53230467	      5.53588873	     82.26090195	      0.00074928	      1.20826509	      0.73505197	     22.25854531	     -1.59861025	    -12.33264702	    -20.93439324	    -18.41336490	      6.28307756	      2.93299011	     22.43855833	     -8.47899581	    -20.94265807	    -16.26067539	    -26.32769347	     11.18904977	     10.58587209	    -32.74665099	     -1.54404934	      6.89122679	    -17.48060062	      0.78019585	     -3.25777972	    -71.10862091	    -24.18654895	    -35.58499404	     82.96321630	    103.61858731	      0.45418816	    -14.42729354	     -3.91147749	    -59.71766308	    -17.26892119	    -17.75383953	     67.96565692	    125.11199710	    -30.62672937	     -9.11216916	    -23.52250513
      0.51000000	     -0.54275630	      5.54395700	     82.40480899	      0.00008243	      1.19923359	      0.72870450	     21.93551803	     -1.67120818	    -12.68517450	    -20.18689435	    -17.96226503	      6.12261843	      2.97754177	     22.21540345	     -8.38167954	    -21.10336608	    -15.87951854	    -26.32899883	     11.49369963	     10.55010439	    -32.40536725	     -1.41690540	      6.92629234	    -18.13670437	      0.87555813	     -3.38698130	    -71.52184560	    -23.13681804	    -35.68542420	     82.63646807	    103.42714898	      0.27954219	    -14.56337205	     -4.29297135	    -60.58470623	    -16.83754772	    -18.14197257	     67.81900358	    125.15213891	    -30.75532026	     -9.28719537	    -23.65063012
      0.51250000	     -0.44285281	      5.84110044	     82.69344042	     -0.00063292	      1.19078607	      0.72222971	     21.16998512	     -1.73031751	    -13.39371646	    -19.30397205	    -17.50108121	      6.28809358	      2.96632378	     21.65263721	     -8.34155761	    -21.28561684	    -15.46297182	    -26.25864058	     12.35568695	     10.47948657	    -32.43038717	     -1.16169813	      6.85358595	    -18.56281066	      0.93347332	     -3.64020973	    -71.86722254	    -22.25500376	    -35.61742575	     82.15859262	    103.23477056	      0.24104117	    -15.12150655	     -5.66531822	    -61.36189303	    -16.33273941	    -18.79631597	     67.63007919	    125.43848513	    -30.45760791	     -9.79985777	    -24.01371027
      0.51500000	     -0.49137496	      5.81285860	     82.71351767	     -0.00121054	      1.18153126	      0.71634897	     20.97537295	     -1.77632794	    -13.46483181	    -18.61968746	    -17.14913211	      6.12254062	      3.00022363	     21.53287328	     -8.23650847	    -21.33757060	    -15.21501630	    -26.23096626	     12.27951076	     10.47688729	    -32.13357895	     -1.11624173	      6.93040770	    -18.89010389	      0.91670632	     -3.59274254	    -72.15313524	    -21.27826486	    -35.79570126	     81.92309474	    103.16525005	      0.12379530	    -15.10858492	     -5.80730288	    -62.09474829	    -15.89392851	    -19.14528057	     67.53170390	    125.35653050	    -30.64752624	     -9.75122519	    -24.12706086
